<svg width="119" height="32" viewBox="0 0 119 32" fill="none" xmlns="http://www.w3.org/2000/svg">
<g filter="url(#filter0_n_5830_1692)">
<path d="M0 16.7547C0 12.5436 1.70733 8.73134 4.46754 5.97228C7.22623 3.21474 11.0366 1.50928 15.2454 1.50928C23.6652 1.50928 30.4908 8.33487 30.4908 16.7547C30.4908 20.9634 28.7853 24.7738 26.0278 27.5325C23.2687 30.2927 19.4564 32.0001 15.2454 32.0001C6.82559 32.0001 0 25.1745 0 16.7547Z" fill="#333333"/>
</g>
<path d="M31.9987 15.2454C31.9987 6.82559 25.1732 0 16.7534 0L15.2441 1.50922C23.6639 1.50922 30.4895 8.33481 30.4895 16.7546L31.9987 15.2454Z" fill="#333333"/>
<path d="M5.97601 4.46301C8.73471 1.70547 12.5451 0 16.7539 0L15.2447 1.50922C11.0359 1.50922 7.22549 3.21468 4.4668 5.97222L5.97601 4.46301Z" fill="#333333"/>
<path d="M27.5366 26.0232C30.2941 23.2645 31.9996 19.4541 31.9996 15.2454L30.4904 16.7546C30.4904 20.9633 28.7849 24.7737 26.0273 27.5324L27.5366 26.0232Z" fill="#333333"/>
<path d="M1.50922 15.2455C1.50922 11.0368 3.21468 7.22636 5.97222 4.46766L4.46754 5.97235C1.70733 8.7314 0 12.5437 0 16.7547L1.50922 15.2455Z" fill="#333333"/>
<path d="M16.7534 30.4907C20.9621 30.4907 24.7725 28.7853 27.5312 26.0277L26.0265 27.5324C23.2675 30.2926 19.4552 31.9999 15.2441 31.9999L16.7534 30.4907Z" fill="#333333"/>
<path d="M1.50922 15.2454C1.50922 23.6652 8.33481 30.4908 16.7546 30.4908L15.2454 32C6.82559 32 0 25.1744 0 16.7546L1.50922 15.2454Z" fill="#333333"/>
<g filter="url(#filter1_n_5830_1692)">
<rect x="1.50781" width="30.4908" height="30.4908" rx="15.2454" fill="#333333"/>
<rect x="1.96517" y="0.457362" width="29.5761" height="29.5761" rx="14.788" stroke="#333333" stroke-width="0.914724"/>
</g>
<path d="M17.419 13.5212C19.0502 13.5374 20.4657 14.0037 21.2906 14.9208C22.9701 16.788 21.5655 19.8154 18.1534 21.6827L12.0915 25L15.5814 17.478C13.9502 17.4618 12.5343 16.9963 11.7094 16.0792C10.0299 14.212 11.4345 11.1846 14.8466 9.31733L20.9085 6L17.419 13.5212Z" fill="white"/>
<path d="M38.9553 19.4H41.7393C41.7633 20.432 42.5313 21.08 43.8753 21.08C45.2433 21.08 45.9873 20.528 45.9873 19.664C45.9873 19.064 45.6753 18.632 44.6193 18.392L42.4833 17.888C40.3473 17.408 39.3153 16.4 39.3153 14.504C39.3153 12.176 41.2833 10.784 44.0193 10.784C46.6833 10.784 48.4833 12.32 48.5073 14.624H45.7233C45.6993 13.616 45.0273 12.968 43.8993 12.968C42.7473 12.968 42.0753 13.496 42.0753 14.384C42.0753 15.056 42.6033 15.488 43.6113 15.728L45.7473 16.232C47.7393 16.688 48.7473 17.6 48.7473 19.424C48.7473 21.824 46.7073 23.312 43.7793 23.312C40.8273 23.312 38.9553 21.728 38.9553 19.4ZM58.2967 11.144H61.2247V23H58.5127L58.2967 21.416C57.5767 22.544 56.0407 23.312 54.4567 23.312C51.7207 23.312 50.1127 21.464 50.1127 18.56V11.144H53.0407V17.528C53.0407 19.784 53.9287 20.696 55.5607 20.696C57.4087 20.696 58.2967 19.616 58.2967 17.36V11.144ZM70.9689 11.096V13.808H69.8889C67.7769 13.808 66.4569 14.936 66.4569 17.24V23H63.5289V11.168H66.2889L66.4569 12.896C66.9609 11.72 68.0889 10.928 69.6729 10.928C70.0809 10.928 70.4889 10.976 70.9689 11.096ZM71.2541 16.808C71.2541 13.352 73.5101 10.76 76.8941 10.76C78.6701 10.76 80.0621 11.504 80.7581 12.776L80.9261 11.144H83.6381V22.4C83.6381 26.36 81.2621 28.832 77.4221 28.832C74.0141 28.832 71.6861 26.888 71.3261 23.72H74.2541C74.4461 25.256 75.6221 26.168 77.4221 26.168C79.4381 26.168 80.7341 24.896 80.7341 22.928V20.96C79.9901 22.064 78.5261 22.76 76.8221 22.76C73.4621 22.76 71.2541 20.24 71.2541 16.808ZM74.2061 16.736C74.2061 18.728 75.4781 20.216 77.3981 20.216C79.4141 20.216 80.6621 18.8 80.6621 16.736C80.6621 14.72 79.4381 13.328 77.3981 13.328C75.4541 13.328 74.2061 14.792 74.2061 16.736ZM91.2522 23.312C87.7242 23.312 85.2522 20.744 85.2522 17.072C85.2522 13.352 87.6762 10.784 91.1562 10.784C94.7082 10.784 96.9642 13.16 96.9642 16.856V17.744L88.0362 17.768C88.2522 19.856 89.3562 20.912 91.3002 20.912C92.9082 20.912 93.9642 20.288 94.3002 19.16H97.0122C96.5082 21.752 94.3482 23.312 91.2522 23.312ZM91.1802 13.184C89.4522 13.184 88.3962 14.12 88.1082 15.896H94.0602C94.0602 14.264 92.9322 13.184 91.1802 13.184ZM101.516 23H98.5876V11.144H101.3L101.54 12.68C102.284 11.48 103.724 10.784 105.332 10.784C108.308 10.784 109.844 12.632 109.844 15.704V23H106.916V16.4C106.916 14.408 105.932 13.448 104.42 13.448C102.62 13.448 101.516 14.696 101.516 16.616V23ZM116.032 23H113.104V13.592H110.824V11.144H113.104V7.448H116.032V11.144H118.336V13.592H116.032V23Z" fill="#333333"/>
<defs>
<filter id="filter0_n_5830_1692" x="0" y="1.50928" width="30.4902" height="30.4907" filterUnits="userSpaceOnUse" color-interpolation-filters="sRGB">
<feFlood flood-opacity="0" result="BackgroundImageFix"/>
<feBlend mode="normal" in="SourceGraphic" in2="BackgroundImageFix" result="shape"/>
<feTurbulence type="fractalNoise" baseFrequency="6.559359073638916 6.559359073638916" stitchTiles="stitch" numOctaves="3" result="noise" seed="4505" />
<feColorMatrix in="noise" type="luminanceToAlpha" result="alphaNoise" />
<feComponentTransfer in="alphaNoise" result="coloredNoise1">
<feFuncA type="discrete" tableValues="0 0 1 1 1 1 1 1 1 1 1 1 1 1 1 1 1 1 1 1 1 1 1 1 1 1 1 1 1 1 1 1 1 1 1 1 1 1 1 1 1 1 1 1 1 1 1 1 0 0 0 0 0 0 0 0 0 0 0 0 0 0 0 0 0 0 0 0 0 0 0 0 0 0 0 0 0 0 0 0 0 0 0 0 0 0 0 0 0 0 0 0 0 0 0 0 0 0 0 0 "/>
</feComponentTransfer>
<feComposite operator="in" in2="shape" in="coloredNoise1" result="noise1Clipped" />
<feFlood flood-color="rgba(255, 255, 255, 0.04)" result="color1Flood" />
<feComposite operator="in" in2="noise1Clipped" in="color1Flood" result="color1" />
<feMerge result="effect1_noise_5830_1692">
<feMergeNode in="shape" />
<feMergeNode in="color1" />
</feMerge>
</filter>
<filter id="filter1_n_5830_1692" x="1.50781" y="0" width="30.4902" height="30.4907" filterUnits="userSpaceOnUse" color-interpolation-filters="sRGB">
<feFlood flood-opacity="0" result="BackgroundImageFix"/>
<feBlend mode="normal" in="SourceGraphic" in2="BackgroundImageFix" result="shape"/>
<feTurbulence type="fractalNoise" baseFrequency="6.559359073638916 6.559359073638916" stitchTiles="stitch" numOctaves="3" result="noise" seed="4505" />
<feColorMatrix in="noise" type="luminanceToAlpha" result="alphaNoise" />
<feComponentTransfer in="alphaNoise" result="coloredNoise1">
<feFuncA type="discrete" tableValues="0 0 1 1 1 1 1 1 1 1 1 1 1 1 1 1 1 1 1 1 1 1 1 1 1 1 1 1 1 1 1 1 1 1 1 1 1 1 1 1 1 1 1 1 1 1 1 1 0 0 0 0 0 0 0 0 0 0 0 0 0 0 0 0 0 0 0 0 0 0 0 0 0 0 0 0 0 0 0 0 0 0 0 0 0 0 0 0 0 0 0 0 0 0 0 0 0 0 0 0 "/>
</feComponentTransfer>
<feComposite operator="in" in2="shape" in="coloredNoise1" result="noise1Clipped" />
<feFlood flood-color="rgba(255, 255, 255, 0.04)" result="color1Flood" />
<feComposite operator="in" in2="noise1Clipped" in="color1Flood" result="color1" />
<feMerge result="effect1_noise_5830_1692">
<feMergeNode in="shape" />
<feMergeNode in="color1" />
</feMerge>
</filter>
</defs>
</svg>
